PathFileType	4	(X/Y/Z)	s01c0101.trc
DataRate	CameraRate	NumFrames	NumMarkers	Units	OrigDataRate	OrigDataStartFrame	OrigNumFrames
200	200	6	47	mm	200	0	2000
Frame#	Time	racr			lacr			c7			jug			rlel			rdr			llel			ldr			s2			lic			ric			lasi			rasi			rpsi			lpsi			rgt			lgt			rth1			rth2			rth3			rth4			rlfc			rsh1			rsh2			rsh3			rsh4			rlmal			rmmal			rcal			rtoe			rmt5			lth1			lth2			lth4			lth3			llfc			lsh1			lsh2			lsh3			lsh4			llmal			lcal			ltoe			lmt5			SBIKE			LBIKE			RBIKE			
		X1	Y1	Z1	X2	Y2	Z2	X3	Y3	Z3	X4	Y4	Z4	X5	Y5	Z5	X6	Y6	Z6	X7	Y7	Z7	X8	Y8	Z8	X9	Y9	Z9	X10	Y10	Z10	X11	Y11	Z11	X12	Y12	Z12	X13	Y13	Z13	X14	Y14	Z14	X15	Y15	Z15	X16	Y16	Z16	X17	Y17	Z17	X18	Y18	Z18	X19	Y19	Z19	X20	Y20	Z20	X21	Y21	Z21	X22	Y22	Z22	X23	Y23	Z23	X24	Y24	Z24	X25	Y25	Z25	X26	Y26	Z26	X27	Y27	Z27	X28	Y28	Z28	X29	Y29	Z29	X30	Y30	Z30	X31	Y31	Z31	X32	Y32	Z32	X33	Y33	Z33	X34	Y34	Z34	X35	Y35	Z35	X36	Y36	Z36	X37	Y37	Z37	X38	Y38	Z38	X39	Y39	Z39	X40	Y40	Z40	X41	Y41	Z41	X42	Y42	Z42	X43	Y43	Z43	X44	Y44	Z44	X45	Y45	Z45	X46	Y46	Z46	X47	Y47	Z47	
0	0.0000	501.408142	1350.115601	-123.009720	504.065125	1351.833984	-413.722839	438.688690	1396.683716	-260.451508	466.233582	1239.765503	-263.315430	586.267151	1078.717285	-45.967979	724.472717	852.971313	-71.518921	588.228333	1077.547974	-471.178253	724.527039	862.128418	-425.422607	-72.405846	1155.699219	-244.249298	103.379189	1152.287964	-416.699615	95.326431	1138.592529	-95.928436	93.484505	1099.739258	-395.068970	109.084198	1086.154053	-119.206276	-38.505180	1191.408325	-191.631363	-41.834381	1194.656494	-298.483490	15.552927	1025.285522	-61.320263	28.240528	1050.626343	-455.766174	78.196083	898.711609	-49.792934	121.872726	828.841553	-57.351341	163.284622	749.846497	-75.620499	169.171906	855.959229	-70.770020	194.098328	647.019043	-101.026283	132.813126	544.600952	-67.642815	109.153419	463.116058	-69.590729	73.865677	379.590149	-83.034027	154.973602	448.494019	-106.062317	27.376602	259.601562	-101.613991	71.959435	273.556458	-177.429001	-15.980984	227.016037	-158.632568	252.606476	197.823349	-131.251343	144.140549	170.824158	-67.414879	127.536255	980.492432	-464.150696	214.574020	977.599548	-465.595337	218.948135	1031.788940	-454.960602	299.714050	966.018188	-457.332916	400.608917	919.188904	-438.894379	326.310669	831.297424	-456.101196	285.812714	755.248657	-444.765564	244.705902	682.158936	-424.880554	337.709106	732.393005	-419.116241	189.069565	568.284668	-400.705597	137.083191	531.319153	-358.003601	413.366150	512.570496	-371.619354	307.314911	490.952850	-434.889618	0.000000	0.000000	-0.000000	-11.950790	84.578094	-453.609528	-20.354258	80.975029	-53.536274	
1	0.0050	501.428436	1350.061646	-123.059883	504.080872	1351.837646	-413.759888	438.700653	1396.673584	-260.484619	466.254028	1239.782715	-263.335754	586.272827	1078.732544	-45.990261	724.463135	852.993530	-71.485115	588.224548	1077.531128	-471.191742	724.513733	862.129578	-425.434723	-72.412743	1155.683960	-244.267136	103.350975	1152.317261	-416.793152	95.315582	1138.587158	-95.907784	93.477684	1099.731079	-395.086761	109.102272	1086.128296	-119.208992	-38.612995	1191.583496	-191.543777	-41.835499	1194.654297	-298.491913	15.564318	1025.264526	-61.332832	28.244141	1050.643921	-455.769409	78.205490	898.712769	-49.786221	121.870934	828.853882	-57.343719	163.305893	749.867310	-75.617462	169.175339	855.957581	-70.753746	194.101883	647.017883	-101.030434	132.827042	544.604126	-67.642990	109.156860	463.088593	-69.598328	73.863991	379.584686	-83.042648	154.978745	448.493927	-106.050140	27.405296	259.609711	-101.624344	71.885925	273.482544	-177.485931	-15.951048	227.027191	-158.620590	252.618576	197.812363	-131.269775	144.170013	170.832214	-67.402473	127.538551	980.505005	-464.150116	214.577560	977.648499	-465.611816	218.989975	1031.853027	-455.008820	299.728119	966.043518	-457.353546	400.616089	919.191528	-438.892853	326.306488	831.306152	-456.107208	285.803497	755.270752	-444.779083	244.681442	682.177368	-424.890808	337.703949	732.415466	-419.108582	189.066452	568.299683	-400.700409	137.083603	531.324463	-357.994781	413.343567	512.592957	-371.611725	307.304779	490.970886	-434.886627	0.000000	0.000000	-0.000000	-11.944011	84.598640	-453.616577	-20.343887	80.945557	-53.540329	
2	0.0100	501.434418	1350.088989	-123.048828	504.081635	1351.833496	-413.782806	438.698547	1396.687622	-260.482056	466.262970	1239.789551	-263.341736	586.284607	1078.739014	-46.021648	724.467102	852.982483	-71.494370	588.231873	1077.512817	-471.191528	724.510864	862.116333	-425.399994	-72.403572	1155.683960	-244.269653	103.408501	1152.230469	-416.889374	95.322487	1138.575684	-95.893936	93.479172	1099.702881	-395.086395	109.131500	1086.085571	-119.186531	-38.620525	1191.587769	-191.547989	-41.839958	1194.643066	-298.495972	15.561559	1025.271851	-61.317661	28.247339	1050.645020	-455.751892	78.209335	898.710144	-49.773151	121.878975	828.856873	-57.333572	163.297531	749.864563	-75.613266	169.181900	855.957336	-70.757782	194.125717	647.003418	-101.041412	132.849792	544.587830	-67.646652	109.163048	463.096344	-69.585129	73.871529	379.567169	-83.026985	154.981323	448.494568	-106.048988	27.410500	259.595917	-101.624954	71.925919	273.453430	-177.462936	-15.946087	227.008286	-158.621002	252.628372	197.817184	-131.259186	144.157089	170.837082	-67.406639	127.538353	980.518005	-464.146515	214.587952	977.648804	-465.612152	218.973495	1031.845947	-454.999634	299.728973	966.046753	-457.360046	400.597504	919.203735	-438.909332	326.304871	831.321655	-456.113495	285.798309	755.290527	-444.771545	244.684860	682.191895	-424.890533	337.703583	732.416443	-419.108978	189.053421	568.308838	-400.695557	137.069046	531.340576	-358.000305	413.334534	512.583923	-371.618713	307.300171	490.973846	-434.875946	0.000000	0.000000	-0.000000	-11.944535	84.616669	-453.621490	-20.332647	80.947609	-53.548519	
3	0.0150	501.462433	1350.092896	-123.065186	504.077423	1351.828857	-413.801910	438.366547	1396.720337	-260.070496	466.298767	1239.802246	-263.366791	586.595703	1078.708740	-46.222431	724.453857	852.994873	-71.481720	588.235718	1077.498901	-471.181641	724.510254	862.117737	-425.381897	-72.403030	1155.669800	-244.270584	103.391495	1152.188843	-416.915161	95.320885	1138.647827	-96.050247	93.474075	1099.679199	-395.077515	109.717491	1085.698975	-118.789543	-38.576611	1191.547852	-191.501312	-41.842487	1194.634155	-298.500671	15.514619	1025.161499	-61.317318	28.281086	1050.577515	-455.790497	78.276863	898.769226	-49.608086	121.900047	828.856689	-57.329292	163.296417	749.857483	-75.599640	169.237595	855.944580	-70.826340	193.795547	647.133606	-101.003868	132.848618	544.585144	-67.645599	109.174591	463.082306	-69.593712	75.362442	380.764862	-81.459740	154.989273	448.485565	-106.055161	27.315840	259.663666	-101.603004	72.025284	273.542480	-177.451981	-15.942737	227.013077	-158.626953	252.650833	197.815384	-131.269562	144.177170	170.814423	-67.414925	127.537354	980.531494	-464.142792	214.604080	977.656006	-465.611572	218.952957	1031.843628	-454.987671	299.729675	966.049927	-457.366913	400.604919	919.212463	-438.899078	326.299957	831.339050	-456.126465	286.652344	754.410583	-447.762604	244.870453	682.238586	-424.894012	338.012482	731.936768	-420.387482	189.037079	568.324585	-400.690552	137.051468	531.362976	-358.007599	413.331451	512.578613	-371.625946	307.294525	490.979553	-434.861877	-224.266968	893.820923	-250.060165	-11.939521	84.586739	-453.617065	-20.352905	80.955070	-53.537678	
4	0.0200	501.410034	1350.123779	-123.074791	504.135101	1352.078613	-413.813904	438.820282	1396.618774	-260.510132	466.319855	1239.775757	-263.335358	586.042786	1078.913452	-45.911995	724.517761	853.004700	-71.557060	588.591980	1077.690918	-470.972870	724.511780	862.132385	-425.379059	-72.238205	1155.550537	-244.163620	103.384430	1152.197144	-416.948822	95.325371	1138.632690	-96.041191	93.263985	1099.883057	-395.341614	109.754463	1085.676514	-118.759247	-38.576427	1191.448364	-191.496414	-41.844913	1194.622803	-298.503784	15.466391	1025.023071	-61.304638	27.989737	1050.646118	-455.957275	78.276970	898.743774	-49.614094	121.860970	828.794434	-57.263474	163.247040	749.799255	-75.553345	169.251907	855.939758	-70.805000	193.831390	647.122803	-101.062836	132.837692	544.560730	-67.748466	109.178795	463.071320	-69.600624	75.359024	380.756683	-81.452805	154.995178	448.462555	-106.060204	27.318188	259.642975	-101.717606	71.811378	273.342712	-177.324448	-16.019691	227.054123	-158.668671	252.638199	197.786285	-131.270279	144.183273	170.813339	-67.397141	127.534081	980.546021	-464.137726	214.625885	977.670166	-465.610016	218.928421	1031.846069	-454.972931	299.730133	966.053040	-457.374176	400.612732	919.280823	-438.831085	326.291779	831.358276	-456.146088	286.645355	754.414734	-447.775665	244.730377	682.346680	-424.937653	338.038025	731.933044	-420.434937	189.017502	568.346985	-400.685394	137.030930	531.391541	-358.016693	413.333679	512.576721	-371.633423	307.287811	490.987915	-434.844513	-224.316757	893.892334	-250.171051	-11.733874	84.856850	-453.793274	-20.401022	81.067406	-53.443729	
5	0.0250	501.391571	1350.121826	-123.070160	503.958588	1351.619507	-413.836212	438.789825	1396.643799	-260.523315	466.360901	1239.797363	-263.335175	586.046631	1078.941650	-45.936672	724.523438	853.016785	-71.561241	588.307922	1077.609863	-471.184814	724.515259	862.158813	-425.390198	-72.599319	1155.801025	-244.318207	103.354744	1152.156860	-417.003235	95.323273	1138.634155	-96.010460	93.497749	1099.301270	-394.780823	109.747574	1085.635010	-118.767448	-38.560143	1191.604126	-191.448242	-41.844543	1194.613525	-298.507111	15.609247	1025.239380	-61.304146	27.737444	1050.729492	-456.003845	78.285789	898.742981	-49.618763	121.909538	828.865540	-57.387802	163.312500	749.856140	-75.671547	169.262604	855.945740	-70.803192	193.815140	647.108521	-100.963539	132.837097	544.575928	-67.598038	109.175713	463.062653	-69.601952	75.337509	380.745941	-81.454956	154.988159	448.441772	-106.045975	27.266581	259.637207	-101.473610	71.931046	273.498749	-177.490646	-15.858978	226.871399	-158.587570	252.645767	197.789749	-131.252304	144.181198	170.801819	-67.399704	127.528496	980.562134	-464.132568	214.653290	977.691040	-465.607513	218.899933	1031.853149	-454.955475	299.730438	966.056030	-457.381775	400.631378	919.092285	-439.035645	326.280365	831.379333	-456.172241	286.562714	754.581543	-447.013763	245.036819	682.181763	-424.973419	338.046387	731.927307	-420.448730	188.994720	568.375793	-400.680084	137.007462	531.426331	-358.027527	413.340546	512.577820	-371.641083	307.280121	490.998901	-434.823883	-224.272461	893.704346	-249.961487	-13.305724	85.720558	-454.052032	-20.364458	80.819290	-53.732307	
